<!-- - -->
<!--Socials  -->

<svg aria-hidden="true" style="position: absolute; width: 0; height: 0; overflow: hidden;" version="1.1" xmlns="http://www.w3.org/2000/svg" xmlns:xlink="http://www.w3.org/1999/xlink">

<defs>

<symbol id="icon-facebook" viewBox="0 0 32 32">
<path d="M19.52 4.64c0.24 0 0.48 0 0.96 0v3.6c-0.24 0-0.72 0-1.2 0s-0.96 0-1.2 0.24c-0.24 0.24-0.24 0.48-0.24 1.040 0 0.48 0 0.8 0 1.28h2.64v3.040h-2.64v13.2h-4.080v-13.28h-2.16v-3.040h2.16v-1.040c0-1.76 0.24-3.040 0.72-3.6 0.72-1.040 2.16-1.52 4.32-1.52 0.24 0.080 0.48 0.080 0.72 0.080z"></path>
</symbol>

<symbol id="icon-instagram" viewBox="0 0 32 32">
<path d="M28.718 10.756c-0.016-1.074-0.215-2.14-0.596-3.145-0.667-1.716-2.024-3.073-3.743-3.737-0.994-0.373-2.044-0.573-3.108-0.596-1.367-0.061-1.801-0.078-5.273-0.078s-3.916 0-5.274 0.078c-1.062 0.023-2.112 0.223-3.106 0.596-1.719 0.664-3.078 2.021-3.743 3.737-0.374 0.992-0.576 2.041-0.596 3.101-0.061 1.367-0.080 1.8-0.080 5.265s0 3.909 0.080 5.265c0.021 1.062 0.222 2.109 0.596 3.104 0.667 1.714 2.024 3.071 3.744 3.735 0.989 0.386 2.040 0.605 3.106 0.639 1.369 0.061 1.803 0.079 5.274 0.079s3.917 0 5.274-0.079c1.062-0.021 2.112-0.221 3.108-0.595 1.719-0.666 3.076-2.022 3.743-3.737 0.374-0.993 0.574-2.041 0.596-3.104 0.061-1.365 0.080-1.798 0.080-5.265-0.003-3.466-0.003-3.906-0.082-5.264zM15.99 22.531c-3.631 0-6.572-2.936-6.572-6.561s2.941-6.561 6.572-6.561c3.628 0 6.572 2.936 6.572 6.561s-2.944 6.561-6.572 6.561zM22.824 10.696c-0.849 0-1.532-0.684-1.532-1.53s0.684-1.53 1.532-1.53c0.846 0 1.531 0.684 1.531 1.53s-0.685 1.53-1.531 1.53z"></path>
<path d="M15.992 19.976c2.211 0 4.004-1.793 4.004-4.004s-1.793-4.004-4.004-4.004c-2.211 0-4.004 1.793-4.004 4.004s1.793 4.004 4.004 4.004z"></path>
</symbol>

<symbol id="icon-twitter" viewBox="0 0 32 32">
<path d="M29.333 7.898c-0.992 0.435-2.048 0.723-3.15 0.863 1.133-0.677 1.998-1.74 2.405-3.022-1.057 0.63-2.223 1.075-3.467 1.323-1.003-1.068-2.433-1.73-3.993-1.73-3.027 0-5.463 2.457-5.463 5.468 0 0.433 0.037 0.85 0.127 1.247-4.545-0.222-8.567-2.4-11.268-5.718-0.472 0.818-0.748 1.755-0.748 2.763 0 1.893 0.975 3.572 2.428 4.543-0.878-0.017-1.74-0.272-2.47-0.673 0 0.017 0 0.038 0 0.060 0 2.657 1.895 4.863 4.38 5.372-0.445 0.122-0.93 0.18-1.433 0.18-0.35 0-0.703-0.020-1.035-0.093 0.708 2.165 2.718 3.757 5.108 3.808-1.86 1.455-4.222 2.332-6.778 2.332-0.448 0-0.878-0.020-1.308-0.075 2.422 1.562 5.292 2.453 8.387 2.453 10.060 0 15.56-8.333 15.56-15.557 0-0.242-0.008-0.475-0.020-0.707 1.085-0.77 1.997-1.732 2.74-2.838z"></path>
</symbol>

</defs>
</svg>

<!-- Arrows -->

<svg xmlns="http://www.w3.org/2000/svg" aria-hidden="true" style="position:absolute;width:0;height:0;overflow:hidden">

  <defs>

    <symbol id="icon-play" viewBox="0 0 32 32">
      <path d="M10.909 24V8.727l14.545 7.636-14.545 7.636z"/>
      <path stroke-width=".727" d="M31.636 16c0 8.636-7.001 15.636-15.636 15.636S.364 24.635.364 16C.364 7.364 7.365.364 16 .364S31.636 7.365 31.636 16"/>
    </symbol>

    <symbol id="icon-arrow" viewBox="0 0 32 32">
      <path stroke-linecap="round" stroke-linejoin="round" stroke-width="1.333" d="M9.143 16h13.714m0 0-3.429-3.429M22.857 16l-3.429 3.429"/>
      <path stroke-linecap="round" stroke-linejoin="round" stroke-width="1.333" d="M16 30.857c8.205 0 14.857-6.652 14.857-14.857S24.205 1.143 16 1.143 1.143 7.795 1.143 16 7.795 30.857 16 30.857"/>
    </symbol>

    <symbol id="icon-scroll-down-btn" viewBox="0 0 32 32">
      <path d="M16.947 17.867a1.334 1.334 0 0 1-1.894 0l-6.107-6.12a1.334 1.334 0 1 0-1.894 1.88l6.12 6.12a4 4 0 0 0 5.654 0l6.12-6.12a1.337 1.337 0 0 0-.434-2.172 1.33 1.33 0 0 0-1.46.292l-6.107 6.12z"/>
    </symbol>

  </defs>
  
</svg>

<!-- Benefits section icons -->

<svg aria-hidden="true" style="position:absolute;width:0;height:0;overflow:hidden" xmlns="http://www.w3.org/2000/svg">

  <defs>

    <symbol id="icon-chocolate" viewBox="0 0 32 32">
      <path d="m13.82 2.41 7.53 7.54.08-.08a.86.86 0 0 1 1.18-.01l.88.87c.3.3.31.77.08 1.1l-.15.2 6.16 6.15a1.4 1.4 0 0 1 0 1.98l-9.43 9.43a1.4 1.4 0 0 1-1.98 0l-4.45-4.45a.9.9 0 0 1-.6.32.8.8 0 0 1-.65-.24l-2.6-2.6a.86.86 0 0 1-.01-1.19l.08-.08-7.53-7.53a1.4 1.4 0 0 1 0-1.98l9.43-9.43a1.4 1.4 0 0 1 1.98 0m6.58 8.48-1.75-1.75a.6.6 0 0 0-.85 0l-3.58 3.58a.6.6 0 0 0 0 .86l1.75 1.75.6-.61-1.56-1.57 3.21-3.22 1.57 1.58zm-5.07 5.08-1.75-1.76a.6.6 0 0 0-.86 0l-3.59 3.6a.6.6 0 0 0 0 .84l1.76 1.75.61-.61-1.57-1.57 3.22-3.2 1.57 1.56zm-6.5-7.78 3.57 3.58c.24.24.62.24.85 0l3.58-3.59a.6.6 0 0 0 .18-.42h.01a.6.6 0 0 0-.18-.43l-3.58-3.58a.6.6 0 0 0-.86 0l-3.58 3.6a.6.6 0 0 0 0 .84m-5.08 5.07 3.58 3.58a.6.6 0 0 0 .85 0l3.58-3.58a.6.6 0 0 0 .18-.43h.01a.6.6 0 0 0-.18-.43L8.2 8.82a.6.6 0 0 0-.85 0l-3.59 3.6a.6.6 0 0 0 0 .84m6.94 8.76 2.36 2.36 9.63-13.04-.65-.65z"/>
      <path d="m13.82 2.41 7.53 7.54.08-.08a.86.86 0 0 1 1.18-.01l.88.87c.3.3.31.77.08 1.1l-.15.2 6.16 6.15a1.4 1.4 0 0 1 0 1.98l-9.43 9.43a1.4 1.4 0 0 1-1.98 0l-4.45-4.45a.9.9 0 0 1-.6.32.8.8 0 0 1-.65-.24l-2.6-2.6a.86.86 0 0 1-.01-1.19l.08-.08-7.53-7.53a1.4 1.4 0 0 1 0-1.98l9.43-9.43a1.4 1.4 0 0 1 1.98 0m6.58 8.48-1.75-1.75a.6.6 0 0 0-.85 0l-3.58 3.58a.6.6 0 0 0 0 .86l1.75 1.75.6-.61-1.56-1.57 3.21-3.22 1.57 1.58zm-5.07 5.08-1.75-1.76a.6.6 0 0 0-.86 0l-3.59 3.6a.6.6 0 0 0 0 .84l1.76 1.75.61-.61-1.57-1.57 3.22-3.2 1.57 1.56zm-6.5-7.78 3.57 3.58c.24.24.62.24.85 0l3.58-3.59a.6.6 0 0 0 .18-.42h.01a.6.6 0 0 0-.18-.43l-3.58-3.58a.6.6 0 0 0-.86 0l-3.58 3.6a.6.6 0 0 0 0 .84m-5.08 5.07 3.58 3.58a.6.6 0 0 0 .85 0l3.58-3.58a.6.6 0 0 0 .18-.43h.01a.6.6 0 0 0-.18-.43L8.2 8.82a.6.6 0 0 0-.85 0l-3.59 3.6a.6.6 0 0 0 0 .84m6.94 8.76 2.36 2.36 9.63-13.04-.65-.65z"/>
    </symbol>

    <symbol id="icon-coin" viewBox="0 0 32 32">
      <path d="M16 2.67c-7.33 0-13.33 6-13.33 13.33s6 13.33 13.33 13.33 13.33-6 13.33-13.33S23.33 2.67 16 2.67m0 24c-5.87 0-10.67-4.8-10.67-10.67S10.13 5.33 16 5.33 26.67 10.13 26.67 16A10.7 10.7 0 0 1 16 26.67"/>
      <path d="M17.73 14.67h-3.46a1.2 1.2 0 1 1 0-2.4h4.93c.8 0 1.33-.54 1.33-1.34S20 9.6 19.2 9.6h-1.87V8.4c0-.8-.53-1.33-1.33-1.33s-1.33.53-1.33 1.33v1.2h-.4a3.87 3.87 0 0 0 0 7.74h3.33c.67 0 1.2.53 1.2 1.2s-.53 1.2-1.2 1.2h-4.93c-.8 0-1.34.53-1.34 1.33s.54 1.33 1.34 1.33h2v1.2c0 .8.53 1.33 1.33 1.33s1.33-.53 1.33-1.33v-1.2h.4a3.87 3.87 0 0 0 0-7.73z"/>
    </symbol>

    <symbol id="icon-spoon" viewBox="0 0 32 32">
      <path d="M15.45 14.1a5 5 0 0 1-1.18-3.28c0-4.32 5.19-8.64 10.37-8.64a5.2 5.2 0 0 1 5.18 5.18c0 5.19-4.32 10.37-8.65 10.37-1.16 0-2.33-.4-3.28-1.18L5.13 29.31a1.73 1.73 0 0 1-2.44-2.44z"/>
    </symbol>

  </defs>
  
</svg>